HIERARCHY
ROOT Root
{
	OFFSET 0.00000 0.00000 0.00000
	CHANNELS 6 Xposition Yposition Zposition Zrotation Xrotation Yrotation
	JOINT Hip
	{
		OFFSET 0 0 0	
		CHANNELS 3 Zrotation Xrotation Yrotation
		JOINT Tummy
		{
			OFFSET 0 0.04 0	
			CHANNELS 3 Zrotation Xrotation Yrotation
			JOINT ChestBottom
			{
				OFFSET 0 0.194 0	
				CHANNELS 3 Zrotation Xrotation Yrotation
				JOINT ChestTop
				{
					OFFSET 0 0.166 0	
					CHANNELS 3 Zrotation Xrotation Yrotation
					JOINT LeftCollar
					{
						OFFSET 0 0.1 0	
						CHANNELS 3 Zrotation Xrotation Yrotation
						JOINT LeftUpperArm
						{
							OFFSET 0.156 -0.02 0.03	
							CHANNELS 3 Zrotation Xrotation Yrotation
							JOINT LeftForeArm
							{
								OFFSET 0.035 -0.27 -0.01	
								CHANNELS 3 Zrotation Xrotation Yrotation
								JOINT LeftHand
								{
									OFFSET 0.01 -0.27 0.01	
									CHANNELS 3 Zrotation Xrotation Yrotation
									End Site
									{
										OFFSET 0 -0.15 0
									}
								}
							}
						}
					}
					JOINT RightCollar
					{
						OFFSET 0 0.1 0	
						CHANNELS 3 Zrotation Xrotation Yrotation
						JOINT RightUpperArm
						{
							OFFSET -0.156 -0.02 0.03	
							CHANNELS 3 Zrotation Xrotation Yrotation
							JOINT RightForeArm
							{
								OFFSET -0.035 -0.27 -0.01	
								CHANNELS 3 Zrotation Xrotation Yrotation
								JOINT RightHand
								{
									OFFSET -0.01 -0.27 0.01	
									CHANNELS 3 Zrotation Xrotation Yrotation
									End Site
									{
										OFFSET 0 -0.15 0
									}
								}
							}
						}
					}
					JOINT Neck
					{
						OFFSET 0 0.1 0	
						CHANNELS 3 Zrotation Xrotation Yrotation
						JOINT Head
						{
							OFFSET 0 0.127 0.03	
							CHANNELS 3 Zrotation Xrotation Yrotation
							End Site
							{
								OFFSET 0 0.127 0.03
							}
						}
					}
				}
			}
		}
	}
	JOINT LeftHip
	{
		OFFSET 0 0 0	
		CHANNELS 3 Zrotation Xrotation Yrotation
		JOINT LeftThigh
		{
			OFFSET 0.088 -0.06 0	
			CHANNELS 3 Zrotation Xrotation Yrotation
			JOINT LeftLowerLeg
			{
				OFFSET 0 -0.39 0.02	
				CHANNELS 3 Zrotation Xrotation Yrotation
				JOINT LeftFootTop
				{
					OFFSET 0 -0.43 -0.02	
					CHANNELS 3 Zrotation Xrotation Yrotation
					JOINT LeftFootFront
					{
						OFFSET 0 -0.07 0.085	
						CHANNELS 3 Zrotation Xrotation Yrotation
						End Site
						{
							OFFSET 0 -0.005 0.09
						}
					}
				}
				JOINT LeftHeel
				{
					OFFSET 0 -0.43 -0.02	
					CHANNELS 3 Zrotation Xrotation Yrotation
					End Site
					{
						OFFSET 0 -0.075 -0.05
					}
				}
			}
		}
	}
	JOINT RightHip
	{
		OFFSET 0 0 0	
		CHANNELS 3 Zrotation Xrotation Yrotation
		JOINT RightThigh
		{
			OFFSET -0.088 -0.06 0	
			CHANNELS 3 Zrotation Xrotation Yrotation
			JOINT RightLowerLeg
			{
				OFFSET 0 -0.39 0.02	
				CHANNELS 3 Zrotation Xrotation Yrotation
				JOINT RightFootTop
				{
					OFFSET 0 -0.43 -0.02	
					CHANNELS 3 Zrotation Xrotation Yrotation
					JOINT RightFootFront
					{
						OFFSET 0 -0.07 0.085	
						CHANNELS 3 Zrotation Xrotation Yrotation
						End Site
						{
							OFFSET 0 -0.005 0.09
						}
					}
				}
				JOINT RightHeel
				{
					OFFSET 0 -0.43 -0.02	
					CHANNELS 3 Zrotation Xrotation Yrotation
					End Site
					{
						OFFSET 0 -0.075 -0.05
					}
				}
			}
		}
	}
}
MOTION
Frames: 23
Frame Time: 0.025
0 0.95703 0 -0 0 -0 0.73335 0.02312 -4.0285 -0.31334 0.83327 -0.029925 -0.31334 0.83327 -0.029925 -0.26323 0.69993 -0.025443 -0 0 -0 0.74672 -1.7707 -1.3648 -0.4895 0.048748 3.7705 -0 0 -0 -0 0 -0 0.24503 -2.1758 0.18674 -1.848 -0.62011 3.9398 -0 0 -0 2.3797 1.0181 -0.19188 2.3797 1.0181 -0.19188 0.73335 0.02312 -4.0285 0.28671 0.13328 1.7218 0.15242 0.92898 2.2545 -0 0 -0 -0 0 -0 -0 0 -0 0.73335 0.02312 -4.0285 0.72925 0.30026 1.4576 -0.36411 -1.1873 1.8139 -0 0 -0 -0 0 -0 -0 0 -0 
0 0.95703 0 -0 0 -0 0.74354 0.029192 -4.033 -0.31155 0.84187 -0.031388 -0.31155 0.84187 -0.031387 -0.26173 0.70716 -0.026673 -0 0 -0 0.73769 -1.7943 -1.3813 -0.49165 0.036814 3.7745 -0 0 -0 -0 0 -0 0.22753 -2.2042 0.17082 -1.8591 -0.63521 3.9655 -0 0 -0 2.3667 1.0194 -0.20062 2.3667 1.0194 -0.20062 0.74354 0.029192 -4.033 0.27601 0.12098 1.7345 0.16966 0.97194 2.2502 -0 0 -0 -0 0 -0 -0 0 -0 0.74354 0.029192 -4.033 0.67957 0.2849 1.3656 -0.32221 -1.1746 1.8073 -0 0 -0 -0 0 -0 -0 0 -0 
0 0.95703 0 -0 0 -0 0.75751 0.03669 -4.0379 -0.30429 0.85582 -0.029192 -0.30429 0.85582 -0.029191 -0.25563 0.71888 -0.024826 -0 0 -0 0.71497 -1.8306 -1.4143 -0.48973 -0.000776 3.7998 -0 0 -0 -0 0 -0 0.19068 -2.2495 0.13663 -1.8927 -0.65498 3.9969 -0 0 -0 2.3418 1.0187 -0.21866 2.3418 1.0187 -0.21866 0.75751 0.03669 -4.0379 0.27278 0.077179 1.7436 0.1832 1.0576 2.2546 -0 0 -0 -0 0 -0 -0 0 -0 0.75751 0.03669 -4.0379 0.57141 0.24667 1.2359 -0.23308 -1.1303 1.7959 -0 0 -0 -0 0 -0 -0 0 -0 
0 0.95703 0 -0 0 -0 0.77371 0.042425 -4.033 -0.29495 0.87716 -0.017858 -0.29495 0.87716 -0.017858 -0.24777 0.73681 -0.015305 -0 0 -0 0.69304 -1.8756 -1.4759 -0.49639 -0.11364 3.8936 -0 0 -0 -0 0 -0 0.15301 -2.3206 0.065946 -2.0053 -0.68438 4.0189 -0 0 -0 2.3159 1.0071 -0.25179 2.3159 1.0071 -0.25179 0.77371 0.042425 -4.033 0.28926 -0.032843 1.7562 0.17835 1.2094 2.2573 -0 0 -0 -0 0 -0 -0 0 -0 0.77371 0.042425 -4.033 0.41698 0.18552 1.0775 -0.13752 -1.0287 1.7839 -0 0 -0 -0 0 -0 -0 0 -0 
0 0.95703 0 -0 0 -0 0.80208 0.043021 -4.0073 -0.29046 0.91921 0.0016289 -0.29046 0.91921 0.00163 -0.24398 0.77214 0.0010552 -0 0 -0 0.69263 -1.9464 -1.5696 -0.6173 -0.34473 4.113 -0 0 -0 -0 0 -0 0.13468 -2.4723 -0.047445 -2.3251 -0.76925 4.0267 -0 0 -0 2.301 0.96297 -0.30281 2.301 0.96297 -0.30281 0.80208 0.043021 -4.0073 0.30521 -0.19986 1.792 0.16711 1.425 2.2333 -0 0 -0 -0 0 -0 -0 0 -0 0.80208 0.043021 -4.0073 0.28257 0.12421 0.86335 -0.13691 -0.86836 1.7647 -0 0 -0 -0 0 -0 -0 0 -0 
0 0.95703 0 -0 0 -0 0.86166 0.033273 -3.9624 -0.2922 1.0014 0.016253 -0.2922 1.0014 0.016254 -0.24543 0.84117 0.013309 -0 0 -0 0.72379 -2.0709 -1.6527 -1.077 -0.67898 4.3601 -0 0 -0 -0 0 -0 0.11505 -2.7929 -0.10568 -3.0074 -0.98019 3.9946 -0 0 -0 2.2946 0.85555 -0.35813 2.2946 0.85555 -0.35813 0.86166 0.033273 -3.9624 0.26711 -0.37603 1.8519 0.18652 1.6785 2.1812 -0 0 -0 -0 0 -0 -0 0 -0 0.86166 0.033273 -3.9624 0.22128 0.089277 0.61628 -0.24081 -0.69501 1.659 -0 0 -0 -0 0 -0 -0 0 -0 
0 0.95703 0 -0 0 -0 0.95234 0.021164 -3.8871 -0.28586 1.1097 -0.010847 -0.28586 1.1097 -0.010846 -0.24013 0.93216 -0.0094829 -0 0 -0 0.78322 -2.1948 -1.6156 -2.0259 -1.0955 4.2912 -0 0 -0 -0 0 -0 0.026507 -3.2822 0.16788 -4.0925 -1.3087 3.8791 -0 0 -0 2.2748 0.6919 -0.38538 2.2748 0.6919 -0.38538 0.95234 0.021164 -3.8871 0.1196 -0.51663 1.9002 0.29077 1.9271 2.1201 -0 0 -0 -0 0 -0 -0 0 -0 0.95234 0.021164 -3.8871 0.1879 0.038185 0.40123 -0.29893 -0.53558 1.3604 -0 0 -0 -0 0 -0 -0 0 -0 
0 0.95703 0 -0 0 -0 1.0344 0.032012 -3.7694 -0.2552 1.223 -0.10161 -0.2552 1.223 -0.10161 -0.21451 1.0273 -0.085717 -0 0 -0 0.88414 -2.2676 -1.3072 -3.315 -1.6911 3.7245 -0 0 -0 -0 0 -0 -0.17724 -3.9062 1.0681 -5.3765 -1.5884 3.7787 -0 0 -0 2.2295 0.48599 -0.36996 2.2295 0.48599 -0.36996 1.0344 0.032012 -3.7694 -0.13626 -0.61998 1.8806 0.50759 2.1287 2.0882 -0 0 -0 -0 0 -0 -0 0 -0 1.0344 0.032012 -3.7694 0.1266 -0.14719 0.24901 -0.23764 -0.33913 0.96552 -0 0 -0 -0 0 -0 -0 0 -0 
0 0.95703 0 -0 0 -0 1.0452 0.090485 -3.6673 -0.2037 1.3621 -0.18851 -0.2037 1.3621 -0.18851 -0.1714 1.1441 -0.15867 -0 0 -0 1.1136 -2.367 -0.55903 -4.6358 -2.6255 2.8035 -0 0 -0 -0 0 -0 -0.51288 -4.7386 2.631 -6.3896 -1.5596 3.9539 -0 0 -0 2.1871 0.20293 -0.36579 2.1871 0.20293 -0.36579 1.0452 0.090485 -3.6673 -0.40164 -0.70877 1.7608 0.76832 2.2524 2.1715 -0 0 -0 -0 0 -0 -0 0 -0 1.0452 0.090485 -3.6673 0.042968 -0.58203 0.147 -0.086343 0.0025978 0.72665 -0 0 -0 -0 0 -0 -0 0 -0 
0 0.95703 0 -0 0 -0 0.94746 0.19741 -3.705 -0.13515 1.534 -0.1674 -0.13515 1.534 -0.1674 -0.11382 1.2885 -0.14085 -0 0 -0 1.5696 -2.5664 0.8634 -5.7304 -3.7384 1.5666 -0 0 -0 -0 0 -0 -1.0666 -5.8005 4.757 -6.5808 -1.0456 4.5707 -0 0 -0 2.177 -0.16258 -0.43285 2.177 -0.16257 -0.43285 0.94746 0.19741 -3.705 -0.57893 -0.79324 1.5438 0.96878 2.2931 2.4629 -0 0 -0 -0 0 -0 -0 0 -0 0.94746 0.19741 -3.705 -0.0025318 -1.3128 0.064704 0.076732 0.59345 0.79037 -0 0 -0 -0 0 -0 -0 0 -0 
0 0.95703 0 -0 0 -0 0.77088 0.34145 -3.9746 -0.049648 1.7089 -0.015823 -0.049648 1.7089 -0.015824 -0.041734 1.4355 -0.013391 -0 0 -0 2.2895 -2.9139 3.0936 -6.4059 -4.497 -0.11366 -0 0 -0 -0 0 -0 -1.9714 -7.0047 7.4808 -5.6957 -0.13735 5.8123 -0 0 -0 2.1892 -0.57156 -0.53628 2.1892 -0.57156 -0.53628 0.77088 0.34145 -3.9746 -0.66766 -0.86388 1.2299 1.0761 2.2596 2.9636 -0 0 -0 -0 0 -0 -0 0 -0 0.77088 0.34145 -3.9746 0.037802 -2.3266 -0.04358 0.17005 1.4844 1.1336 -0 0 -0 -0 0 -0 -0 0 -0 
0 0.95703 0 -0 0 -0 0.57301 0.52739 -4.4939 0.038245 1.8359 0.21898 0.038245 1.8359 0.21898 0.032596 1.5422 0.18401 -0 0 -0 3.4493 -3.3253 5.9493 -6.6942 -4.6605 -2.2426 -0 0 -0 -0 0 -0 -3.3345 -8.2802 10.91 -3.8563 0.86891 8.2291 -0 0 -0 2.2034 -0.95797 -0.58794 2.2034 -0.95797 -0.58794 0.57301 0.52739 -4.4939 -0.65998 -0.89307 0.83349 1.0845 2.1347 3.5881 -0 0 -0 -0 0 -0 -0 0 -0 0.57301 0.52739 -4.4939 0.19712 -3.595 -0.232 0.11877 2.6695 1.7322 -0 0 -0 -0 0 -0 -0 0 -0 
0 0.95703 0 -0 0 -0 0.39181 0.77271 -5.244 0.1027 1.8955 0.49523 0.1027 1.8955 0.49522 0.087363 1.5922 0.41619 -0 0 -0 5.3257 -3.5654 9.0269 -6.8841 -4.6128 -4.6899 -0 0 -0 -0 0 -0 -5.2128 -9.6922 15.052 -1.235 1.6809 12.3 -0 0 -0 2.2165 -1.2913 -0.53517 2.2165 -1.2913 -0.53517 0.39181 0.77271 -5.244 -0.4678 -0.88371 0.44122 0.93339 1.9122 4.2403 -0 0 -0 -0 0 -0 -0 0 -0 0.39181 0.77271 -5.244 0.49459 -5.1417 -0.50905 -0.14535 4.1633 2.638 -0 0 -0 -0 0 -0 -0 0 -0 
0 0.95703 0 -0 0 -0 0.25845 1.1019 -6.2136 0.11751 1.8906 0.79886 0.11751 1.8906 0.79886 0.10048 1.588 0.67126 -0 0 -0 7.8604 -3.3647 11.826 -7.1751 -4.8963 -7.1295 -0 0 -0 -0 0 -0 -7.5948 -11.347 19.702 2.0608 2.0302 17.744 -0 0 -0 2.2361 -1.5796 -0.37162 2.2361 -1.5796 -0.37162 0.25845 1.1019 -6.2136 -0.11194 -0.92857 0.20746 0.62556 1.6493 4.8565 -0 0 -0 -0 0 -0 -0 0 -0 0.25845 1.1019 -6.2136 0.89947 -7.082 -0.81462 -0.6655 6.0447 3.9119 -0 0 -0 -0 0 -0 -0 0 -0 
0 0.95703 0 -0 0 -0 0.21729 1.5186 -7.4618 0.059426 1.8396 1.1612 0.059426 1.8396 1.1612 0.052421 1.5452 0.97548 -0 0 -0 10.709 -2.8281 13.915 -7.5681 -5.4749 -9.1111 -0 0 -0 -0 0 -0 -10.428 -13.411 24.365 5.9405 1.6677 23.959 -0 0 -0 2.2619 -1.8593 -0.12062 2.2619 -1.8593 -0.12061 0.21729 1.5186 -7.4618 0.28025 -1.0104 0.28888 0.19869 1.3062 5.4542 -0 0 -0 -0 0 -0 -0 0 -0 0.21729 1.5186 -7.4618 1.3261 -9.528 -0.99911 -1.4228 8.4219 5.4714 -0 0 -0 -0 0 -0 -0 0 -0 
0 0.95703 0 -0 0 -0 0.31567 2.0191 -9.0766 -0.087847 1.769 1.643 -0.087847 1.769 1.643 -0.070378 1.4861 1.3799 -0 0 -0 13.736 -2.3728 15.194 -8.163 -5.7172 -10.481 -0 0 -0 -0 0 -0 -13.549 -16.011 28.417 10.456 0.55917 30.355 -0 0 -0 2.2844 -2.1841 0.17305 2.2844 -2.1841 0.17305 0.31567 2.0191 -9.0766 0.52028 -1.0885 0.6687 -0.25297 0.82512 6.1131 -0 0 -0 -0 0 -0 -0 0 -0 0.31567 2.0191 -9.0766 1.6433 -12.507 -0.87846 -2.2837 11.386 7.0278 -0 0 -0 -0 0 -0 -0 0 -0 
0 0.95703 0 -0 0 -0 0.5693 2.5628 -11.028 -0.31259 1.7115 2.2703 -0.31259 1.7115 2.2703 -0.25801 1.4385 1.9063 -0 0 -0 16.904 -2.1421 15.81 -9.1189 -5.2655 -11.546 -0 0 -0 -0 0 -0 -16.809 -19.009 31.364 15.722 -1.0722 36.378 -0 0 -0 2.2864 -2.5942 0.4545 2.2864 -2.5942 0.4545 0.5693 2.5628 -11.028 0.48067 -1.199 1.0653 -0.63602 0.2539 6.9163 -0 0 -0 -0 0 -0 -0 0 -0 0.5693 2.5628 -11.028 1.7236 -15.859 -0.42757 -3.0865 14.904 8.3215 -0 0 -0 -0 0 -0 -0 0 -0 
0 0.95703 0 -0 0 -0 0.96186 3.0396 -13.216 -0.59628 1.721 3.0348 -0.59628 1.721 3.0348 -0.49474 1.4478 2.5479 -0 0 -0 20.111 -2.0633 15.995 -10.459 -4.283 -12.878 -0 0 -0 -0 0 -0 -20.233 -22.127 32.78 21.818 -2.7781 41.893 -0 0 -0 2.2548 -3.1195 0.67934 2.2548 -3.1195 0.67934 0.96186 3.0396 -13.216 0.28363 -1.2893 1.2355 -1.0884 -0.36819 7.8716 -0 0 -0 -0 0 -0 -0 0 -0 0.96186 3.0396 -13.216 1.5236 -19.381 0.179 -3.782 18.906 9.399 -0 0 -0 -0 0 -0 -0 0 -0 
0 0.95703 0 -0 0 -0 1.5119 3.3425 -15.63 -0.97208 1.8171 3.9614 -0.97208 1.8171 3.9614 -0.80809 1.531 3.3253 -0 0 -0 23.295 -2.1064 16.026 -12.081 -3.1284 -15.019 -0 0 -0 -0 0 -0 -23.75 -25.216 32.238 28.648 -4.0035 47.165 -0 0 -0 2.2142 -3.7536 0.7973 2.2142 -3.7536 0.7973 1.5119 3.3425 -15.63 -0.0035155 -1.2731 1.2078 -1.725 -1.0584 8.917 -0 0 -0 -0 0 -0 -0 0 -0 1.5119 3.3425 -15.63 1.0466 -22.999 0.70588 -4.4001 23.325 10.424 -0 0 -0 -0 0 -0 -0 0 -0 
0 0.95703 0 -0 0 -0 2.2848 3.4612 -18.256 -1.4981 1.9415 5.0537 -1.4981 1.9415 5.0537 -1.2469 1.6399 4.2415 -0 0 -0 26.513 -2.3043 16.199 -13.935 -2.1023 -18.231 -0 0 -0 -0 0 -0 -26.956 -28.264 29.561 35.925 -4.1092 52.415 -0 0 -0 2.2136 -4.4386 0.78151 2.2136 -4.4386 0.78151 2.2848 3.4612 -18.256 -0.42292 -1.2405 1.0715 -2.4741 -1.7861 9.8938 -0 0 -0 -0 0 -0 -0 0 -0 2.2848 3.4612 -18.256 0.32863 -26.592 0.95749 -5.0422 27.888 11.301 -0 0 -0 -0 0 -0 -0 0 -0 
0 0.95703 0 -0 0 -0 3.3317 3.51 -20.923 -2.1854 1.9776 6.2193 -2.1854 1.9776 6.2193 -1.8214 1.6774 5.2188 -0 0 -0 29.883 -2.6813 16.773 -16.13 -1.4174 -22.302 -0 0 -0 -0 0 -0 -29.345 -31.275 25.314 43.3 -2.7556 57.322 -0 0 -0 2.2833 -5.0759 0.65533 2.2833 -5.0759 0.65533 3.3317 3.51 -20.923 -1.0111 -1.4715 0.81191 -3.2222 -2.3972 10.796 -0 0 -0 -0 0 -0 -0 0 -0 3.3317 3.51 -20.923 -0.51144 -29.998 0.90324 -5.8472 32.212 11.593 -0 0 -0 -0 0 -0 -0 0 -0 
0 0.95703 0 -0 0 -0 4.5594 3.5877 -23.345 -2.9484 1.8695 7.3116 -2.9484 1.8695 7.3116 -2.4609 1.5959 6.135 -0 0 -0 33.342 -3.26 17.911 -18.851 -1.2724 -26.721 -0 0 -0 -0 0 -0 -30.721 -34.311 20.454 50.695 -0.22323 61.081 -0 0 -0 2.3962 -5.5949 0.47256 2.3962 -5.5949 0.47256 4.5594 3.5877 -23.345 -1.783 -2.0476 0.57032 -3.8498 -2.8083 11.569 -0 0 -0 -0 0 -0 -0 0 -0 4.5594 3.5877 -23.345 -1.2757 -32.964 0.67622 -6.8618 35.924 11 -0 0 -0 -0 0 -0 -0 0 -0 
0 0.95703 0 -0 0 -0 5.8456 3.7738 -25.358 -3.6661 1.6112 8.2323 -3.6661 1.6112 8.2323 -3.0644 1.3891 6.9082 -0 0 -0 36.682 -4.0229 19.497 -22.357 -1.8243 -31.019 -0 0 -0 -0 0 -0 -31.406 -37.496 15.588 58.615 2.8877 62.898 -0 0 -0 2.4793 -5.9563 0.29314 2.4793 -5.9563 0.29314 5.8456 3.7738 -25.358 -2.6172 -2.8368 0.72408 -4.3762 -3.1269 11.871 -0 0 -0 -0 0 -0 -0 0 -0 5.8456 3.7738 -25.358 -1.9459 -35.334 0.50538 -7.8273 38.697 9.6796 -0 0 -0 -0 0 -0 -0 0 -0 
